<?xml version="1.0" encoding="UTF-8" standalone="no"?>
<svg
   id="emoji"
   viewBox="0 0 72 72"
   version="1.1"
   sodipodi:docname="acceptedLogo.svg"
   inkscape:version="1.1 (c68e22c387, 2021-05-23)"
   xmlns:inkscape="http://www.inkscape.org/namespaces/inkscape"
   xmlns:sodipodi="http://sodipodi.sourceforge.net/DTD/sodipodi-0.dtd"
   xmlns="http://www.w3.org/2000/svg"
   xmlns:svg="http://www.w3.org/2000/svg">
  <defs
     id="defs20" />
  <sodipodi:namedview
     id="namedview18"
     pagecolor="#ffffff"
     bordercolor="#666666"
     borderopacity="1.0"
     inkscape:pageshadow="2"
     inkscape:pageopacity="0.0"
     inkscape:pagecheckerboard="0"
     showgrid="false"
     inkscape:zoom="11.055556"
     inkscape:cx="36.090451"
     inkscape:cy="36.633164"
     inkscape:window-width="1920"
     inkscape:window-height="1000"
     inkscape:window-x="-11"
     inkscape:window-y="-11"
     inkscape:window-maximized="1"
     inkscape:current-layer="layer2" />
  <g
     inkscape:groupmode="layer"
     id="layer1"
     inkscape:label="Layer 1">
    <a
       id="a953"
       transform="translate(-0.0904518,-0.18090488)"
       style="fill:#8dc100;fill-opacity:1">
      <ellipse
         style="fill:#8dc100;fill-opacity:1;stroke:#218f00;stroke-width:4.01238;stroke-opacity:1"
         id="path859"
         ry="34.053864"
         rx="33.827999"
         cy="36.090454"
         cx="36.090454" />
    </a>
  </g>
  <g
     inkscape:groupmode="layer"
     id="layer2"
     inkscape:label="Layer 2">
    <g
       id="line"
       style="stroke:#ffffff;stroke-opacity:1"
       transform="matrix(1,0,0,-1,-0.36138651,69.472057)">
      <path
         fill="none"
         stroke="#000000"
         stroke-linecap="round"
         stroke-linejoin="round"
         stroke-width="2"
         d="m 17.236,40.3161 c -3.2007,-3.5759 -4.9796,-8.2009 -5,-13 0,-8.319 5.679,-15 14,-15 h 9"
         id="path2"
         style="stroke:#ffffff;stroke-opacity:1" />
      <path
         fill="none"
         stroke="#000000"
         stroke-linecap="round"
         stroke-linejoin="round"
         stroke-width="2"
         d="m 17.236,40.3161 15,19 c 2.21,2.8 5.811,1.084 5,-1 l -7,-18 h 4.389"
         id="path4"
         style="stroke:#ffffff;stroke-opacity:1" />
      <path
         fill="none"
         stroke="#000000"
         stroke-linecap="round"
         stroke-linejoin="round"
         stroke-width="2"
         d="m 41.448,40.3161 h 13 c 0.3099,0.0413 0.6238,0.0413 0.9337,0 1.933,-0.2578 3.291,-2.0339 3.0331,-3.9669 -0.2579,-1.933 -2.0339,-3.291 -3.9669,-3.0331 h -13 c -2.0658,-0.1226 -3.8473,1.4362 -4,3.5 0.1528,2.0638 1.9343,3.6226 4.0001,3.5 z"
         id="path6"
         style="stroke:#ffffff;stroke-opacity:1" />
      <path
         fill="none"
         stroke="#000000"
         stroke-linecap="round"
         stroke-linejoin="round"
         stroke-width="2"
         d="m 42.305,18.9801 h 7 c 0.3099,0.0413 0.6238,0.0413 0.9337,0 1.933,-0.2578 3.291,-2.0339 3.0331,-3.9669 -0.2579,-1.933 -2.0339,-3.291 -3.9669,-3.0331 h -7 c -2.0658,-0.1226 -3.8473,1.4362 -4,3.5 0.1528,2.0638 1.9343,3.6226 4.0001,3.5 z"
         id="path8"
         style="stroke:#ffffff;stroke-opacity:1" />
      <path
         fill="none"
         stroke="#000000"
         stroke-linecap="round"
         stroke-linejoin="round"
         stroke-width="2"
         d="m 37.236,32.9801 h 19 c 0.3099,0.0413 0.6238,0.0413 0.9337,0 1.933,-0.2578 3.291,-2.0339 3.0331,-3.9669 -0.2579,-1.933 -2.0339,-3.291 -3.9669,-3.0331 h -19 c -2.0658,-0.1226 -3.8473,1.4362 -4,3.5 0.1528,2.0638 1.9343,3.6226 4.0001,3.5 z"
         id="path10"
         style="stroke:#ffffff;stroke-opacity:1" />
      <path
         fill="none"
         stroke="#000000"
         stroke-linecap="round"
         stroke-linejoin="round"
         stroke-width="2"
         d="m 39.236,25.9801 h 15 c 0.3099,0.0413 0.6238,0.0413 0.9337,0 1.933,-0.2578 3.291,-2.0339 3.0331,-3.9669 -0.2579,-1.933 -2.0339,-3.291 -3.9669,-3.0331 h -15 c -2.0658,-0.1226 -3.8473,1.4362 -4,3.5 0.1528,2.0638 1.9343,3.6226 4.0001,3.5 z"
         id="path12"
         style="stroke:#ffffff;stroke-opacity:1" />
      <path
         fill="none"
         stroke="#000000"
         stroke-miterlimit="10"
         stroke-width="2"
         d="m 27.355,12.315 c -10.5,0 -15.125,6.94 -15.125,15.5 0.0807,2.7175 0.73,5.3879 1.906,7.839"
         id="path14"
         style="stroke:#ffffff;stroke-opacity:1" />
    </g>
  </g>
</svg>
