<?xml version="1.0" encoding="UTF-8" standalone="no"?>
<svg
   id="emoji"
   viewBox="0 0 72 72"
   version="1.1"
   sodipodi:docname="emptyLogo.svg"
   inkscape:version="1.1 (c68e22c387, 2021-05-23)"
   xmlns:inkscape="http://www.inkscape.org/namespaces/inkscape"
   xmlns:sodipodi="http://sodipodi.sourceforge.net/DTD/sodipodi-0.dtd"
   xmlns="http://www.w3.org/2000/svg"
   xmlns:svg="http://www.w3.org/2000/svg">
  <defs
     id="defs18" />
  <sodipodi:namedview
     id="namedview16"
     pagecolor="#ffffff"
     bordercolor="#666666"
     borderopacity="1.0"
     inkscape:pageshadow="2"
     inkscape:pageopacity="0.0"
     inkscape:pagecheckerboard="0"
     showgrid="false"
     inkscape:zoom="11.055556"
     inkscape:cx="36.090451"
     inkscape:cy="35.999999"
     inkscape:window-width="1664"
     inkscape:window-height="1024"
     inkscape:window-x="152"
     inkscape:window-y="0"
     inkscape:window-maximized="0"
     inkscape:current-layer="line" />
  <g
     id="line">
    <circle
       cx="36"
       cy="36"
       fill="none"
       stroke="#000000"
       stroke-linecap="round"
       stroke-linejoin="round"
       stroke-width="2"
       id="circle2"
       style="stroke:#d6d6d6;stroke-opacity:1"
       r="23" />
    <path
       fill="none"
       stroke="#000000"
       stroke-linecap="round"
       stroke-linejoin="round"
       stroke-miterlimit="10"
       stroke-width="2"
       d="M23.0708,27.7432c0.4132-0.344,2.2456-1.7915,4.9091-1.6364c2.1608,0.1259,3.61,1.2333,4.0909,1.6364"
       id="path4"
       style="stroke:#d6d6d6;stroke-opacity:1" />
    <path
       fill="none"
       stroke="#000000"
       stroke-linecap="round"
       stroke-linejoin="round"
       stroke-miterlimit="10"
       stroke-width="2"
       d="M48.9292,27.0952c-0.4132,0.344-2.2456,1.7915-4.9091,1.6364c-2.1608-0.1259-3.61-1.2333-4.0909-1.6364"
       id="path6"
       style="stroke:#d6d6d6;stroke-opacity:1" />
    <path
       d="M30,35c0,1.6568-1.3448,3-3,3c-1.6553,0-3-1.3433-3-3c0-1.6552,1.3447-3,3-3C28.6552,32,30,33.3448,30,35"
       id="path8"
       style="stroke:#d6d6d6;stroke-opacity:1;fill:none" />
    <path
       d="M48,35c0,1.6568-1.3447,3-3,3s-3-1.3433-3-3c0-1.6552,1.3447-3,3-3S48,33.3448,48,35"
       id="path10"
       style="stroke:#d6d6d6;stroke-opacity:1;fill:none" />
    <path
       fill="none"
       stroke="#000000"
       stroke-linecap="round"
       stroke-linejoin="round"
       stroke-width="2"
       d="M29.1321,47.1385 c4.6002-1.4165,9.8284-1.4698,13.7359,0"
       id="path12"
       style="stroke:#d6d6d6;stroke-opacity:1" />
  </g>
</svg>
