<?xml version="1.0" encoding="UTF-8" standalone="no"?>
<svg
   id="emoji"
   viewBox="0 0 72 72"
   version="1.1"
   sodipodi:docname="E31B.svg"
   inkscape:version="1.1 (c68e22c387, 2021-05-23)"
   xmlns:inkscape="http://www.inkscape.org/namespaces/inkscape"
   xmlns:sodipodi="http://sodipodi.sourceforge.net/DTD/sodipodi-0.dtd"
   xmlns="http://www.w3.org/2000/svg"
   xmlns:svg="http://www.w3.org/2000/svg">
  <defs
     id="defs29" />
  <sodipodi:namedview
     id="namedview27"
     pagecolor="#ffffff"
     bordercolor="#666666"
     borderopacity="1.0"
     inkscape:pageshadow="2"
     inkscape:pageopacity="0.0"
     inkscape:pagecheckerboard="0"
     showgrid="false"
     inkscape:zoom="11.055556"
     inkscape:cx="31.839196"
     inkscape:cy="36"
     inkscape:window-width="1920"
     inkscape:window-height="1000"
     inkscape:window-x="-11"
     inkscape:window-y="-11"
     inkscape:window-maximized="1"
     inkscape:current-layer="line" />
  <g
     id="color">
    <ellipse
       cx="34.9608"
       cy="25.7788"
       rx="2.2509"
       ry="1.3725"
       fill="#fff"
       id="ellipse2" />
  </g>
  <g
     id="line">
    <path
       fill="none"
       stroke="#000"
       stroke-linecap="round"
       stroke-linejoin="round"
       stroke-width="2"
       d="M34.344,58.0262a22.6773,22.6773,0,0,1-5.6481-44.1971"
       id="path17"
       style="stroke-width:4.1;stroke-miterlimit:4;stroke-dasharray:none" />
    <path
       d="M29.0563,17.4945l4.6293-4.14a.51.51,0,0,0-.1806-.8647l-5.8993-1.94a.51.51,0,0,0-.6585.5887l1.27,6.08A.51.51,0,0,0,29.0563,17.4945Z"
       id="path19" />
    <path
       fill="none"
       stroke="#000"
       stroke-linecap="round"
       stroke-linejoin="round"
       stroke-width="2"
       d="M37.656,12.7662a22.6773,22.6773,0,0,1,5.648,44.1971"
       id="path21"
       style="fill:#0000ff;stroke:#0000ff;stroke-opacity:1;fill-opacity:0;stroke-width:4.1;stroke-miterlimit:4;stroke-dasharray:none" />
    <path
       d="M42.9437,53.2979l-4.6293,4.14a.51.51,0,0,0,.1806.8646l5.8993,1.94a.51.51,0,0,0,.6585-.5887l-1.27-6.08A.51.51,0,0,0,42.9437,53.2979Z"
       id="path23"
       style="fill:#0000ff" />
    <text
       xml:space="preserve"
       style="font-style:normal;font-weight:normal;font-size:24.9759px;line-height:1.25;font-family:sans-serif;fill:#000000;fill-opacity:1;stroke:none;stroke-width:0.624396"
       x="23.488804"
       y="41.184792"
       id="text7322"
       transform="scale(0.94464896,1.0585943)"><tspan
         sodipodi:role="line"
         id="tspan7320"
         x="23.488804"
         y="41.184792"
         style="font-style:normal;font-variant:normal;font-weight:normal;font-stretch:normal;font-size:24.9759px;font-family:'Franklin Gothic Demi';-inkscape-font-specification:'Franklin Gothic Demi, Normal';font-variant-ligatures:normal;font-variant-caps:normal;font-variant-numeric:normal;font-variant-east-asian:normal;stroke-width:0.624396"><tspan
   style="font-style:normal;font-variant:normal;font-weight:normal;font-stretch:normal;font-size:24.9759px;font-family:'Franklin Gothic Demi';-inkscape-font-specification:'Franklin Gothic Demi, Normal';font-variant-ligatures:normal;font-variant-caps:normal;font-variant-numeric:normal;font-variant-east-asian:normal;fill:#0000fb;fill-opacity:1;stroke-width:0.624396"
   id="tspan16030">A</tspan>P</tspan></text>
  </g>
</svg>
