<?xml version="1.0" encoding="UTF-8" standalone="no"?>
<svg
   id="emoji"
   viewBox="0 0 72 72"
   version="1.1"
   sodipodi:docname="rejectLogo.svg"
   inkscape:version="1.1 (c68e22c387, 2021-05-23)"
   xmlns:inkscape="http://www.inkscape.org/namespaces/inkscape"
   xmlns:sodipodi="http://sodipodi.sourceforge.net/DTD/sodipodi-0.dtd"
   xmlns="http://www.w3.org/2000/svg"
   xmlns:svg="http://www.w3.org/2000/svg">
  <defs
     id="defs20" />
  <sodipodi:namedview
     id="namedview18"
     pagecolor="#ffffff"
     bordercolor="#666666"
     borderopacity="1.0"
     inkscape:pageshadow="2"
     inkscape:pageopacity="0.0"
     inkscape:pagecheckerboard="0"
     showgrid="false"
     inkscape:zoom="11.055556"
     inkscape:cx="34.46231"
     inkscape:cy="36.45226"
     inkscape:window-width="1920"
     inkscape:window-height="1000"
     inkscape:window-x="-11"
     inkscape:window-y="-11"
     inkscape:window-maximized="1"
     inkscape:current-layer="layer2" />
  <g
     inkscape:groupmode="layer"
     id="layer1"
     inkscape:label="Layer 1">
    <ellipse
       style="fill:#db0000;fill-opacity:1;stroke:#a90000;stroke-width:4.012;stroke-miterlimit:4;stroke-dasharray:none;stroke-opacity:1"
       id="path859"
       ry="34.053864"
       rx="33.827999"
       cy="-36.271358"
       cx="35.864319"
       transform="scale(1,-1)" />
  </g>
  <g
     inkscape:groupmode="layer"
     id="layer2"
     inkscape:label="Layer 2">
    <g
       id="g959"
       transform="matrix(1,0,0,-1,-8.4496365e-4,74.626981)">
      <g
         id="line">
        <path
           fill="none"
           stroke="#000000"
           stroke-miterlimit="10"
           stroke-width="2"
           d="m 14.136,36.2626 c -1.176,2.4511 -1.8253,5.1215 -1.906,7.839 0,8.56 4.625,15.5 15.125,15.5"
           id="path14"
           style="stroke:#ff0000;stroke-opacity:1" />
      </g>
      <path
         fill="none"
         stroke="#000000"
         stroke-linecap="round"
         stroke-linejoin="round"
         stroke-width="2"
         d="m 37.448,35.1006 c 0.1527,2.0638 1.9342,3.6226 4,3.5 h 13 c 1.933,0.2578 3.709,-1.1001 3.9669,-3.0331 0.2579,-1.933 -1.1001,-3.709 -3.0331,-3.9669 -0.3099,-0.0413 -0.6238,-0.0413 -0.9337,0 h -13 c -2.0659,-0.1226 -3.8474,1.4362 -4.0001,3.5 z"
         id="path6"
         style="stroke:#ffffff;stroke-opacity:1" />
      <path
         fill="none"
         stroke="#000000"
         stroke-linecap="round"
         stroke-linejoin="round"
         stroke-width="2"
         d="m 33.236,42.4366 c 0.1527,2.0638 1.9342,3.6226 4,3.5 h 19 c 1.933,0.2578 3.709,-1.1001 3.9669,-3.0331 0.2579,-1.933 -1.1001,-3.709 -3.0331,-3.9669 -0.3099,-0.0413 -0.6238,-0.0413 -0.9337,0 h -19 c -2.0659,-0.1226 -3.8474,1.4362 -4.0001,3.5 z"
         id="path10"
         style="stroke:#ffffff;stroke-opacity:1" />
      <path
         fill="none"
         stroke="#000000"
         stroke-linecap="round"
         stroke-linejoin="round"
         stroke-width="2"
         d="m 35.236,49.4366 c 0.1527,2.0638 1.9342,3.6226 4,3.5 h 15 c 1.933,0.2578 3.709,-1.1001 3.9669,-3.0331 0.2579,-1.933 -1.1001,-3.709 -3.0331,-3.9669 -0.3099,-0.0413 -0.6238,-0.0413 -0.9337,0 h -15 c -2.0659,-0.1226 -3.8474,1.4362 -4.0001,3.5 z"
         id="path12"
         style="stroke:#ffffff;stroke-opacity:1" />
      <path
         fill="none"
         stroke="#000000"
         stroke-linecap="round"
         stroke-linejoin="round"
         stroke-width="2"
         d="m 38.305,56.4366 c 0.1527,2.0638 1.9342,3.6226 4,3.5 h 7 c 1.933,0.2578 3.709,-1.1001 3.9669,-3.0331 0.2579,-1.933 -1.1001,-3.709 -3.0331,-3.9669 -0.3099,-0.0413 -0.6238,-0.0413 -0.9337,0 h -7 c -2.0659,-0.1226 -3.8474,1.4362 -4.0001,3.5 z"
         id="path8"
         style="stroke:#ffffff;stroke-opacity:1" />
      <path
         fill="none"
         stroke="#000000"
         stroke-linecap="round"
         stroke-linejoin="round"
         stroke-width="2"
         d="m 34.625,31.6006 h -4.389 l 7,-18 c 0.811,-2.084 -2.79,-3.8 -5,-1 l -15,19"
         id="path4"
         style="stroke:#ffffff;stroke-opacity:1" />
      <path
         fill="none"
         stroke="#000000"
         stroke-linecap="round"
         stroke-linejoin="round"
         stroke-width="2"
         d="m 35.236,59.6006 h -9 c -8.321,0 -14,-6.681 -14,-15 0.0204,-4.7991 1.7993,-9.4241 5,-13"
         id="path2"
         style="stroke:#ffffff;stroke-opacity:1" />
    </g>
  </g>
</svg>
