<?xml version="1.0" encoding="UTF-8" standalone="no"?>
<svg
   id="emoji"
   viewBox="0 0 72 72"
   version="1.1"
   sodipodi:docname="1F50E.svg"
   inkscape:version="1.1 (c68e22c387, 2021-05-23)"
   xmlns:inkscape="http://www.inkscape.org/namespaces/inkscape"
   xmlns:sodipodi="http://sodipodi.sourceforge.net/DTD/sodipodi-0.dtd"
   xmlns="http://www.w3.org/2000/svg"
   xmlns:svg="http://www.w3.org/2000/svg">
  <defs
     id="defs24" />
  <sodipodi:namedview
     id="namedview22"
     pagecolor="#ffffff"
     bordercolor="#666666"
     borderopacity="1.0"
     inkscape:pageshadow="2"
     inkscape:pageopacity="0.0"
     inkscape:pagecheckerboard="0"
     showgrid="false"
     inkscape:zoom="11.055556"
     inkscape:cx="36"
     inkscape:cy="35.592965"
     inkscape:window-width="1920"
     inkscape:window-height="1000"
     inkscape:window-x="-11"
     inkscape:window-y="-11"
     inkscape:window-maximized="1"
     inkscape:current-layer="layer4" />
  <g
     id="hair" />
  <g
     id="skin" />
  <g
     id="skin-shadow" />
  <g
     inkscape:groupmode="layer"
     id="layer3"
     inkscape:label="Layer 1" />
  <g
     inkscape:groupmode="layer"
     id="layer4"
     inkscape:label="Layer 2">
    <ellipse
       style="fill:#00a3ff;fill-opacity:1;fill-rule:evenodd;stroke:#0070ff;stroke-width:4.012;stroke-miterlimit:4;stroke-dasharray:none;stroke-opacity:1"
       id="path1033"
       transform="matrix(0.99999294,-0.00375669,0.0037995,0.99999278,0,0)"
       ry="33.899734"
       rx="33.85791"
       cy="36.044708"
       cx="35.908527" />
    <g
       id="g1151"
       transform="matrix(0.8415921,0,0,0.87423078,3.5915195,4.6771453)">
      <g
         id="g1137">
        <g
           id="color">
          <ellipse
             cx="43.971298"
             cy="25.4757"
             rx="11.1657"
             ry="11.1656"
             transform="matrix(0.5379,-0.843,0.843,0.5379,-1.1578,48.8391)"
             fill="#ffffff"
             stroke="none"
             id="ellipse2" />
          <path
             fill="#92d3f5"
             stroke="none"
             d="m 53.4402,31.8458 c 1.461,-2.289 2.284,-6.5149 1.6981,-9.1673 -0.4014,-1.8161 -2.6553,-3.8396 -3.8988,-5.1585 0.6487,2.3544 1.0384,7.3509 -2.1852,11.9716 -2.7358,3.9212 -6.6908,5.6353 -8.9477,6.0576 4.2488,1.2831 10.8311,0.2175 13.3336,-3.7034 z"
             id="path4" />
          <path
             fill="#d0cfce"
             stroke="none"
             d="m 51.7774,13.2414 c -3.2684,-2.0837 -7.1512,-2.7717 -10.9373,-1.9372 -3.785,0.8366 -7.0182,3.097 -9.1041,6.3645 -4.3036,6.746 -2.3176,15.7369 4.4283,20.0415 6.745,4.3047 15.7348,2.3197 20.0415,-4.4273 2.0849,-3.2675 2.7728,-7.1524 1.9362,-10.9374 -0.8366,-3.7851 -3.096,-7.0182 -6.3646,-9.1041 z m 1.8363,18.3876 c -2.1788,3.4147 -5.8819,5.2814 -9.6611,5.2814 -2.1045,9e-4 -4.2319,-0.5785 -6.1343,-1.7924 -5.3172,-3.3926 -6.8818,-10.4791 -3.4892,-15.7954 1.6436,-2.5754 4.1915,-4.3576 7.1747,-5.0159 2.9841,-0.6584 6.0444,-0.1176 8.6208,1.5269 2.5755,1.6426 4.3567,4.1905 5.016,7.1747 0.6593,2.9831 0.1166,6.0443 -1.5269,8.6207 z"
             id="path6" />
          <path
             fill="#3f3f3f"
             stroke="none"
             d="m 31.4429,40.2651 -6.918,10.335 -3.7106,5.8155 c -0.4778,0.75 0.3797,3.2105 1.1294,3.6888 0.3613,0.2305 2.5325,0.011 2.5325,0.011 L 36,42.9231 Z"
             id="path8" />
        </g>
      </g>
      <circle
         cx="2.2058339"
         cy="51.088474"
         transform="rotate(-57.458936)"
         fill="none"
         stroke="#000000"
         stroke-linecap="round"
         stroke-linejoin="round"
         stroke-miterlimit="10"
         stroke-width="1.99999"
         id="ellipse14"
         r="14.637094"
         style="fill:#00a4ff;fill-opacity:1;stroke:#ffffff;stroke-opacity:1" />
      <ellipse
         cx="2.2059331"
         cy="51.088474"
         rx="11.165619"
         ry="11.165519"
         transform="rotate(-57.458936)"
         fill="none"
         stroke="#000000"
         stroke-linecap="round"
         stroke-linejoin="round"
         stroke-miterlimit="10"
         stroke-width="1.99999"
         id="ellipse16"
         style="stroke:#ffffff;stroke-opacity:0" />
      <path
         fill="none"
         stroke="#000000"
         stroke-linecap="round"
         stroke-linejoin="round"
         stroke-miterlimit="10"
         stroke-width="2"
         d="M 31.5943,40.1121 36,42.9231 25.5041,59.3731 c -0.7499,1.1753 -2.344,1.4986 -3.5606,0.7224 v 0 c -1.2166,-0.7763 -1.595,-2.3582 -0.8451,-3.5335 z"
         id="path18"
         style="stroke:#ffffff;stroke-opacity:1;fill:#00a3ff;fill-opacity:1" />
    </g>
    <circle
       style="fill:#ffffff;fill-opacity:1;fill-rule:evenodd;stroke-width:0.912699"
       id="path4150"
       cx="40.658295"
       cy="27.180904"
       r="9.452261" />
  </g>
</svg>
