<?xml version="1.0" encoding="UTF-8" standalone="no"?>
<svg
   id="emoji"
   viewBox="0 0 72 72"
   version="1.1"
   sodipodi:docname="26A0.svg"
   inkscape:version="1.1 (c68e22c387, 2021-05-23)"
   xmlns:inkscape="http://www.inkscape.org/namespaces/inkscape"
   xmlns:sodipodi="http://sodipodi.sourceforge.net/DTD/sodipodi-0.dtd"
   xmlns="http://www.w3.org/2000/svg"
   xmlns:svg="http://www.w3.org/2000/svg">
  <defs
     id="defs12" />
  <sodipodi:namedview
     id="namedview10"
     pagecolor="#ffffff"
     bordercolor="#666666"
     borderopacity="1.0"
     inkscape:pageshadow="2"
     inkscape:pageopacity="0.0"
     inkscape:pagecheckerboard="0"
     showgrid="false"
     inkscape:zoom="11.055556"
     inkscape:cx="36"
     inkscape:cy="35.592965"
     inkscape:window-width="1920"
     inkscape:window-height="1000"
     inkscape:window-x="-11"
     inkscape:window-y="-11"
     inkscape:window-maximized="1"
     inkscape:current-layer="layer2" />
  <circle
     style="fill:#ffb300;fill-opacity:1;fill-rule:evenodd;stroke:#ff9500;stroke-width:4.7957;stroke-opacity:1"
     id="path851"
     cx="35.909546"
     cy="35.999996"
     r="33.460323" />
  <g
     inkscape:groupmode="layer"
     id="layer1"
     inkscape:label="Layer 1" />
  <g
     inkscape:groupmode="layer"
     id="layer2"
     inkscape:label="Layer 2">
    <g
       id="line"
       transform="matrix(0.89098133,0,0,0.86033873,3.6080892,1.3177616)"
       style="fill:#ffea00;fill-opacity:1;stroke:#ffffff;stroke-opacity:1">
      <path
         fill="none"
         stroke="#000000"
         stroke-linecap="round"
         stroke-linejoin="round"
         stroke-miterlimit="10"
         stroke-width="2"
         d="m 32.5222,13.005 c 0.6977,-1.2046 1.9862,-2.0244 3.4778,-2.0244 1.4916,0 2.7801,0.8198 3.4778,2.0244 L 60.4456,54.9401 C 60.7889,55.5339 61,56.2136 61,56.9483 c 0,2.2272 -1.8051,4.0323 -4.0323,4.0323 L 15.0323,60.9979 C 12.8051,60.9979 11,59.192 11,56.9657 c 0,-0.7356 0.211,-1.4145 0.5544,-2.0083 L 32.5222,13.005"
         id="path2"
         style="fill:#ffbf00;fill-opacity:1;stroke:#ffffff;stroke-opacity:1" />
      <path
         fill="none"
         stroke="#000000"
         stroke-linecap="round"
         stroke-linejoin="round"
         stroke-miterlimit="10"
         stroke-width="2"
         d="m 37.6129,47.2709 c 0,0.8907 -0.7222,1.6129 -1.6129,1.6129 -0.8907,0 -1.6129,-0.7222 -1.6129,-1.6129 V 23.8925 c 0,-0.8907 0.7222,-1.6129 1.6129,-1.6129 0.8907,0 1.6129,0.7222 1.6129,1.6129 z"
         id="path4"
         style="fill:#ffc200;fill-opacity:1;stroke:#ffffff;stroke-opacity:1" />
      <circle
         cx="36"
         cy="54.528999"
         r="1.6129"
         fill="none"
         stroke="#000000"
         stroke-linecap="round"
         stroke-linejoin="round"
         stroke-miterlimit="10"
         stroke-width="2"
         id="circle6"
         style="fill:#ffc800;fill-opacity:1;stroke:#ffffff;stroke-opacity:1" />
    </g>
  </g>
</svg>
